<svg width="1726" height="609" viewBox="0 0 1726 609" fill="none" xmlns="http://www.w3.org/2000/svg">
<rect width="1726" height="609" fill="#005EB8"/>
<path d="M1452.76 118.302C1490.37 115.105 1530.83 124.885 1570.38 141.652L1570.79 141.831L1570.66 142.264L1543.66 227.264L1543.43 227.982L1542.86 227.494C1519.2 207.327 1487.09 197.998 1462.91 200.111C1450.82 201.167 1440.79 205.078 1434.78 211.836C1428.79 218.567 1426.7 228.216 1430.66 240.964C1430.96 241.927 1431.65 242.998 1432.73 244.188C1433.81 245.374 1435.26 246.65 1437.02 248.024C1440.54 250.774 1445.29 253.881 1450.85 257.418C1461.95 264.482 1476.21 273.232 1490.09 284.158C1517.85 306.003 1544.2 336.648 1540.68 380.153L1540.68 380.178L1540.67 380.204C1529.64 440.104 1498.16 475.896 1454.27 490.462C1410.56 504.972 1354.63 498.386 1294.52 473.793L1289.67 493.234L1289.57 493.613H1060.56L1060.69 493.005L1129.29 181.837L981.641 344.348L950.669 493.214L950.586 493.613H860.563L860.691 493.009L893.656 337.171L794.726 123.323L794.398 122.613H893.505L893.637 122.911L950.819 252.192L1063.8 122.784L1063.95 122.613H1364.81L1364.67 123.225L1353.65 171.119C1381.5 137.17 1415.74 121.449 1452.76 118.302ZM1214.78 205.613L1214.69 206.004L1202.69 260.004L1202.56 260.613H1324.57L1307.77 342.613H1184.78L1184.69 343.002L1169.69 409.002L1169.55 409.613H1308.54L1308.65 409.276L1317.44 383.876C1340.64 398.695 1356.21 409.625 1385.6 414.606L1385.6 414.607C1416.75 419.379 1435.93 408.651 1444.15 394.397C1452.36 380.183 1449.6 362.506 1436.97 353.703C1421.73 343.089 1407.07 334.045 1394.02 325.161C1380.94 316.253 1369.39 307.452 1360.18 297.216C1350.97 286.988 1344.11 275.324 1340.41 260.686C1336.72 246.042 1336.18 228.394 1339.67 206.191L1339.76 205.613H1214.78Z" fill="#B3DAFF"/>
<path d="M588 489.413H497L575 119.413H665L637 256.413H750L779 119.413H868L790 489.413H699L732 340.413H619.5L588 489.413Z" fill="white"/>
<path d="M244 489.413H156L233 119.413H327L400.5 337.413L447 119.413H535L454 489.413H361L288.5 274.413L244 489.413Z" fill="white"/>
<path opacity="0.3" d="M1479.63 139.913C1508.22 139.913 1536.38 145.336 1562.61 156.225L1571.49 159.909L1568.6 169.074L1555.44 210.904L1551.43 223.668L1539.99 216.732C1526.04 208.282 1508.64 202.273 1485.74 202.273C1471.33 202.273 1457.37 205.154 1447.35 211.592C1437.96 217.628 1431.38 227.138 1431.38 243.003C1431.38 252.534 1435.98 260.231 1445.25 268.289C1454.94 276.72 1467.73 283.907 1482.43 293.239C1510.69 311.167 1543.24 335.523 1543.24 384.472C1543.24 411.457 1533.88 440.401 1513.46 462.709C1492.85 485.222 1461.63 500.253 1419.47 500.253C1379.6 500.253 1350.97 491.327 1323.98 480.725L1314.59 477.036L1317.9 467.504L1332.94 424.263L1337.29 411.751L1348.48 418.845C1366.23 430.098 1391.09 437.893 1411.95 437.893C1434.6 437.893 1449.56 430.899 1458.81 421.936C1468.16 412.874 1472.42 401.082 1472.42 390.113C1472.42 376.985 1467.16 367.841 1458.31 359.645C1448.85 350.888 1436.22 343.988 1421.58 335.193C1407.53 326.753 1392.16 316.808 1380.42 302.529C1368.4 287.889 1360.56 269.172 1360.56 243.943C1360.56 176.186 1422.34 139.913 1479.63 139.913ZM900.553 145.552L903.312 151.825L961.976 285.192L1080.36 149.16L1083.5 145.552H1365.1L1362.19 158.38L1352.79 199.74L1350.93 207.913H1221.26L1204.75 282.793H1326.13L1323.72 295.285L1315.73 336.644L1314.08 345.153H1190.7L1171.39 432.253H1309.03L1306.28 444.969L1297.35 486.329L1295.56 494.613H1088.86L1091.65 481.865L1163.38 154.645L1155.77 163.084L985.66 351.782L958.035 486.226L956.312 494.613H888.813L891.405 482L918.91 348.135L832.463 160.445L825.604 145.552H900.553Z" fill="white" stroke="white" stroke-width="21"/>
<path opacity="0.3" d="M1445.63 129.913C1474.22 129.913 1502.38 135.336 1528.61 146.225L1537.49 149.909L1534.6 159.074L1521.44 200.904L1517.43 213.668L1505.99 206.732C1492.04 198.282 1474.64 192.273 1451.74 192.273C1437.33 192.273 1423.37 195.154 1413.35 201.592C1403.96 207.628 1397.38 217.138 1397.38 233.003C1397.38 242.534 1401.98 250.231 1411.25 258.289C1420.94 266.72 1433.73 273.907 1448.43 283.239C1476.69 301.167 1509.24 325.523 1509.24 374.472C1509.24 401.457 1499.88 430.401 1479.46 452.709C1458.85 475.222 1427.63 490.253 1385.47 490.253C1345.6 490.253 1316.97 481.327 1289.98 470.725L1280.59 467.036L1283.9 457.504L1298.94 414.263L1303.29 401.751L1314.48 408.845C1332.23 420.098 1357.09 427.893 1377.95 427.893C1400.6 427.893 1415.56 420.899 1424.81 411.936C1434.16 402.874 1438.42 391.082 1438.42 380.113C1438.42 366.985 1433.16 357.841 1424.31 349.645C1414.85 340.888 1402.22 333.988 1387.58 325.193C1373.53 316.753 1358.16 306.808 1346.42 292.529C1334.4 277.889 1326.56 259.172 1326.56 233.943C1326.56 166.186 1388.34 129.913 1445.63 129.913ZM866.553 135.552L869.312 141.825L927.976 275.192L1046.36 139.16L1049.5 135.552H1331.1L1328.19 148.38L1318.79 189.74L1316.93 197.913H1187.26L1170.75 272.793H1292.13L1289.72 285.285L1281.73 326.644L1280.08 335.153H1156.7L1137.39 422.253H1275.03L1272.28 434.969L1263.35 476.329L1261.56 484.613H1054.86L1057.65 471.865L1129.38 144.645L1121.77 153.084L951.66 341.782L924.035 476.226L922.312 484.613H854.813L857.405 472L884.91 338.135L798.463 150.445L791.604 135.552H866.553Z" fill="white" stroke="white" stroke-width="21"/>
</svg>
