<svg width="1726" height="609" viewBox="0 0 1726 609" fill="none" xmlns="http://www.w3.org/2000/svg">
<rect width="1726" height="609" fill="#005EB8"/>
<mask id="path-2-outside-1_1_2" maskUnits="userSpaceOnUse" x="781" y="116" width="776" height="382" fill="black">
<rect fill="white" x="781" y="116" width="776" height="382"/>
<path d="M873.51 471L901.71 333.76L813.82 142.94H865.52L930.85 291.46L1060.1 142.94H1119.79L947.77 333.76L919.57 471H873.51ZM1073.73 471L1145.64 142.94H1323.77L1314.37 184.3H1184.65L1163.5 280.18H1285.23L1277.24 321.54H1154.1L1130.13 429.64H1267.84L1258.91 471H1073.73ZM1530.41 152.81L1517.25 194.64C1501.74 185.24 1482.47 178.66 1457.56 178.66C1426.54 178.66 1392.7 190.88 1392.7 229.89C1392.7 284.88 1504.56 285.35 1504.56 371.36C1504.56 420.71 1470.25 476.64 1391.29 476.64C1353.22 476.64 1325.96 468.18 1299.64 457.84L1314.68 414.6C1333.95 426.82 1360.74 435.28 1383.77 435.28C1433.59 435.28 1454.74 404.26 1454.74 377C1454.74 310.26 1342.88 322.01 1342.88 230.83C1342.88 171.14 1397.4 137.3 1451.45 137.3C1478.71 137.3 1505.5 142.47 1530.41 152.81Z"/>
</mask>
<path d="M873.51 471L901.71 333.76L813.82 142.94H865.52L930.85 291.46L1060.1 142.94H1119.79L947.77 333.76L919.57 471H873.51ZM1073.73 471L1145.64 142.94H1323.77L1314.37 184.3H1184.65L1163.5 280.18H1285.23L1277.24 321.54H1154.1L1130.13 429.64H1267.84L1258.91 471H1073.73ZM1530.41 152.81L1517.25 194.64C1501.74 185.24 1482.47 178.66 1457.56 178.66C1426.54 178.66 1392.7 190.88 1392.7 229.89C1392.7 284.88 1504.56 285.35 1504.56 371.36C1504.56 420.71 1470.25 476.64 1391.29 476.64C1353.22 476.64 1325.96 468.18 1299.64 457.84L1314.68 414.6C1333.95 426.82 1360.74 435.28 1383.77 435.28C1433.59 435.28 1454.74 404.26 1454.74 377C1454.74 310.26 1342.88 322.01 1342.88 230.83C1342.88 171.14 1397.4 137.3 1451.45 137.3C1478.71 137.3 1505.5 142.47 1530.41 152.81Z" fill="#B3DAFF"/>
<path d="M873.51 471L852.94 466.773L847.756 492H873.51V471ZM901.71 333.76L922.28 337.987L923.668 331.235L920.784 324.975L901.71 333.76ZM813.82 142.94V121.94H781.027L794.746 151.725L813.82 142.94ZM865.52 142.94L884.743 134.485L879.225 121.94H865.52V142.94ZM930.85 291.46L911.627 299.915L924.958 330.22L946.691 305.246L930.85 291.46ZM1060.1 142.94V121.94H1050.54L1044.26 129.154L1060.1 142.94ZM1119.79 142.94L1135.39 157.001L1166.99 121.94H1119.79V142.94ZM947.77 333.76L932.172 319.699L928.349 323.94L927.2 329.533L947.77 333.76ZM919.57 471V492H936.694L940.14 475.227L919.57 471ZM873.51 471L894.08 475.227L922.28 337.987L901.71 333.76L881.14 329.533L852.94 466.773L873.51 471ZM901.71 333.76L920.784 324.975L832.894 134.155L813.82 142.94L794.746 151.725L882.636 342.545L901.71 333.76ZM813.82 142.94V163.94H865.52V142.94V121.94H813.82V142.94ZM865.52 142.94L846.297 151.395L911.627 299.915L930.85 291.46L950.073 283.005L884.743 134.485L865.52 142.94ZM930.85 291.46L946.691 305.246L1075.94 156.726L1060.1 142.94L1044.26 129.154L915.009 277.674L930.85 291.46ZM1060.1 142.94V163.94H1119.79V142.94V121.94H1060.1V142.94ZM1119.79 142.94L1104.19 128.879L932.172 319.699L947.77 333.76L963.368 347.821L1135.39 157.001L1119.79 142.94ZM947.77 333.76L927.2 329.533L899 466.773L919.57 471L940.14 475.227L968.34 337.987L947.77 333.76ZM919.57 471V450H873.51V471V492H919.57V471ZM1073.73 471L1053.21 466.504L1047.62 492H1073.73V471ZM1145.64 142.94V121.94H1128.74L1125.12 138.444L1145.64 142.94ZM1323.77 142.94L1344.24 147.594L1350.07 121.94H1323.77V142.94ZM1314.37 184.3V205.3H1331.13L1334.84 188.954L1314.37 184.3ZM1184.65 184.3V163.3H1167.77L1164.14 179.776L1184.65 184.3ZM1163.5 280.18L1142.99 275.656L1137.36 301.18H1163.5V280.18ZM1285.23 280.18L1305.85 284.163L1310.67 259.18H1285.23V280.18ZM1277.24 321.54V342.54H1294.57L1297.86 325.523L1277.24 321.54ZM1154.1 321.54V300.54H1137.24L1133.59 316.994L1154.1 321.54ZM1130.13 429.64L1109.62 425.094L1103.96 450.64H1130.13V429.64ZM1267.84 429.64L1288.36 434.072L1293.85 408.64H1267.84V429.64ZM1258.91 471V492H1275.86L1279.43 475.432L1258.91 471ZM1073.73 471L1094.24 475.496L1166.15 147.436L1145.64 142.94L1125.12 138.444L1053.21 466.504L1073.73 471ZM1145.64 142.94V163.94H1323.77V142.94V121.94H1145.64V142.94ZM1323.77 142.94L1303.29 138.286L1293.89 179.646L1314.37 184.3L1334.84 188.954L1344.24 147.594L1323.77 142.94ZM1314.37 184.3V163.3H1184.65V184.3V205.3H1314.37V184.3ZM1184.65 184.3L1164.14 179.776L1142.99 275.656L1163.5 280.18L1184 284.704L1205.15 188.824L1184.65 184.3ZM1163.5 280.18V301.18H1285.23V280.18V259.18H1163.5V280.18ZM1285.23 280.18L1264.61 276.197L1256.62 317.557L1277.24 321.54L1297.86 325.523L1305.85 284.163L1285.23 280.18ZM1277.24 321.54V300.54H1154.1V321.54V342.54H1277.24V321.54ZM1154.1 321.54L1133.59 316.994L1109.62 425.094L1130.13 429.64L1150.63 434.186L1174.6 326.086L1154.1 321.54ZM1130.13 429.64V450.64H1267.84V429.64V408.64H1130.13V429.64ZM1267.84 429.64L1247.31 425.208L1238.38 466.568L1258.91 471L1279.43 475.432L1288.36 434.072L1267.84 429.64ZM1258.91 471V450H1073.73V471V492H1258.91V471ZM1530.41 152.81L1550.44 159.112L1556.21 140.782L1538.46 133.415L1530.41 152.81ZM1517.25 194.64L1506.36 212.599L1529.25 226.469L1537.28 200.942L1517.25 194.64ZM1299.64 457.84L1279.8 450.941L1273.17 470.005L1291.96 477.386L1299.64 457.84ZM1314.68 414.6L1325.92 396.865L1303.55 382.675L1294.84 407.701L1314.68 414.6ZM1530.41 152.81L1510.38 146.508L1497.22 188.338L1517.25 194.64L1537.28 200.942L1550.44 159.112L1530.41 152.81ZM1517.25 194.64L1528.13 176.681C1509.49 165.381 1486.48 157.66 1457.56 157.66V178.66V199.66C1478.46 199.66 1493.99 205.099 1506.36 212.599L1517.25 194.64ZM1457.56 178.66V157.66C1439.84 157.66 1419.12 161.063 1402.14 171.981C1383.91 183.703 1371.7 203.104 1371.7 229.89H1392.7H1413.7C1413.7 217.666 1418.41 211.452 1424.85 207.311C1432.54 202.367 1444.26 199.66 1457.56 199.66V178.66ZM1392.7 229.89H1371.7C1371.7 252.07 1383.46 267.696 1396.4 278.944C1408.47 289.444 1424.85 298.775 1437.38 306.725C1464.76 324.097 1483.56 340.245 1483.56 371.36H1504.56H1525.56C1525.56 316.465 1488.43 289.373 1459.88 271.26C1444.44 261.468 1432.86 254.995 1423.96 247.253C1415.92 240.259 1413.7 235.205 1413.7 229.89H1392.7ZM1504.56 371.36H1483.56C1483.56 391.415 1476.54 412.487 1462.04 428.326C1447.92 443.753 1425.41 455.64 1391.29 455.64V476.64V497.64C1436.13 497.64 1470.25 481.562 1493.02 456.686C1515.42 432.223 1525.56 400.655 1525.56 371.36H1504.56ZM1391.29 476.64V455.64C1356.82 455.64 1332.31 448.111 1307.32 438.294L1299.64 457.84L1291.96 477.386C1319.61 488.249 1349.61 497.64 1391.29 497.64V476.64ZM1299.64 457.84L1319.47 464.739L1334.51 421.499L1314.68 414.6L1294.84 407.701L1279.8 450.941L1299.64 457.84ZM1314.68 414.6L1303.43 432.335C1325.75 446.489 1356.4 456.28 1383.77 456.28V435.28V414.28C1365.08 414.28 1342.15 407.151 1325.92 396.865L1314.68 414.6ZM1383.77 435.28V456.28C1413.2 456.28 1436.5 447.004 1452.55 431.441C1468.4 416.078 1475.74 395.951 1475.74 377H1454.74H1433.74C1433.74 385.309 1430.5 394.322 1423.32 401.284C1416.34 408.046 1404.15 414.28 1383.77 414.28V435.28ZM1454.74 377H1475.74C1475.74 353.201 1465.28 336.151 1451.53 323.417C1438.99 311.807 1422.29 302.692 1409.62 295.079C1395.77 286.755 1384.58 279.151 1376.58 269.419C1369.18 260.408 1363.88 248.756 1363.88 230.83H1342.88H1321.88C1321.88 258.494 1330.56 279.566 1344.13 296.082C1357.11 311.877 1373.88 322.603 1387.99 331.081C1403.29 340.27 1414.56 346.431 1422.99 354.237C1430.21 360.92 1433.74 367.429 1433.74 377H1454.74ZM1342.88 230.83H1363.88C1363.88 187.275 1403.87 158.3 1451.45 158.3V137.3V116.3C1390.93 116.3 1321.88 155.005 1321.88 230.83H1342.88ZM1451.45 137.3V158.3C1476.05 158.3 1500.09 162.964 1522.36 172.205L1530.41 152.81L1538.46 133.415C1510.9 121.976 1481.37 116.3 1451.45 116.3V137.3Z" fill="#B3DAFF" mask="url(#path-2-outside-1_1_2)"/>
<g opacity="0.3">
<mask id="path-4-outside-2_1_2" maskUnits="userSpaceOnUse" x="795" y="126" width="776" height="382" fill="black">
<rect fill="white" x="795" y="126" width="776" height="382"/>
<path d="M887.51 481L915.71 343.76L827.82 152.94H879.52L944.85 301.46L1074.1 152.94H1133.79L961.77 343.76L933.57 481H887.51ZM1087.73 481L1159.64 152.94H1337.77L1328.37 194.3H1198.65L1177.5 290.18H1299.23L1291.24 331.54H1168.1L1144.13 439.64H1281.84L1272.91 481H1087.73ZM1544.41 162.81L1531.25 204.64C1515.74 195.24 1496.47 188.66 1471.56 188.66C1440.54 188.66 1406.7 200.88 1406.7 239.89C1406.7 294.88 1518.56 295.35 1518.56 381.36C1518.56 430.71 1484.25 486.64 1405.29 486.64C1367.22 486.64 1339.96 478.18 1313.64 467.84L1328.68 424.6C1347.95 436.82 1374.74 445.28 1397.77 445.28C1447.59 445.28 1468.74 414.26 1468.74 387C1468.74 320.26 1356.88 332.01 1356.88 240.83C1356.88 181.14 1411.4 147.3 1465.45 147.3C1492.71 147.3 1519.5 152.47 1544.41 162.81Z"/>
</mask>
<path d="M887.51 481L915.71 343.76L827.82 152.94H879.52L944.85 301.46L1074.1 152.94H1133.79L961.77 343.76L933.57 481H887.51ZM1087.73 481L1159.64 152.94H1337.77L1328.37 194.3H1198.65L1177.5 290.18H1299.23L1291.24 331.54H1168.1L1144.13 439.64H1281.84L1272.91 481H1087.73ZM1544.41 162.81L1531.25 204.64C1515.74 195.24 1496.47 188.66 1471.56 188.66C1440.54 188.66 1406.7 200.88 1406.7 239.89C1406.7 294.88 1518.56 295.35 1518.56 381.36C1518.56 430.71 1484.25 486.64 1405.29 486.64C1367.22 486.64 1339.96 478.18 1313.64 467.84L1328.68 424.6C1347.95 436.82 1374.74 445.28 1397.77 445.28C1447.59 445.28 1468.74 414.26 1468.74 387C1468.74 320.26 1356.88 332.01 1356.88 240.83C1356.88 181.14 1411.4 147.3 1465.45 147.3C1492.71 147.3 1519.5 152.47 1544.41 162.81Z" fill="white"/>
<path d="M887.51 481L866.94 476.773L861.756 502H887.51V481ZM915.71 343.76L936.28 347.987L937.668 341.235L934.784 334.975L915.71 343.76ZM827.82 152.94V131.94H795.027L808.746 161.725L827.82 152.94ZM879.52 152.94L898.743 144.485L893.225 131.94H879.52V152.94ZM944.85 301.46L925.627 309.915L938.958 340.22L960.691 315.246L944.85 301.46ZM1074.1 152.94V131.94H1064.54L1058.26 139.154L1074.1 152.94ZM1133.79 152.94L1149.39 167.001L1180.99 131.94H1133.79V152.94ZM961.77 343.76L946.172 329.699L942.349 333.94L941.2 339.533L961.77 343.76ZM933.57 481V502H950.694L954.14 485.227L933.57 481ZM887.51 481L908.08 485.227L936.28 347.987L915.71 343.76L895.14 339.533L866.94 476.773L887.51 481ZM915.71 343.76L934.784 334.975L846.894 144.155L827.82 152.94L808.746 161.725L896.636 352.545L915.71 343.76ZM827.82 152.94V173.94H879.52V152.94V131.94H827.82V152.94ZM879.52 152.94L860.297 161.395L925.627 309.915L944.85 301.46L964.073 293.005L898.743 144.485L879.52 152.94ZM944.85 301.46L960.691 315.246L1089.94 166.726L1074.1 152.94L1058.26 139.154L929.009 287.674L944.85 301.46ZM1074.1 152.94V173.94H1133.79V152.94V131.94H1074.1V152.94ZM1133.79 152.94L1118.19 138.879L946.172 329.699L961.77 343.76L977.368 357.821L1149.39 167.001L1133.79 152.94ZM961.77 343.76L941.2 339.533L913 476.773L933.57 481L954.14 485.227L982.34 347.987L961.77 343.76ZM933.57 481V460H887.51V481V502H933.57V481ZM1087.73 481L1067.21 476.504L1061.62 502H1087.73V481ZM1159.64 152.94V131.94H1142.74L1139.12 148.444L1159.64 152.94ZM1337.77 152.94L1358.24 157.594L1364.07 131.94H1337.77V152.94ZM1328.37 194.3V215.3H1345.13L1348.84 198.954L1328.37 194.3ZM1198.65 194.3V173.3H1181.77L1178.14 189.776L1198.65 194.3ZM1177.5 290.18L1156.99 285.656L1151.36 311.18H1177.5V290.18ZM1299.23 290.18L1319.85 294.163L1324.67 269.18H1299.23V290.18ZM1291.24 331.54V352.54H1308.57L1311.86 335.523L1291.24 331.54ZM1168.1 331.54V310.54H1151.24L1147.59 326.994L1168.1 331.54ZM1144.13 439.64L1123.62 435.094L1117.96 460.64H1144.13V439.64ZM1281.84 439.64L1302.36 444.072L1307.85 418.64H1281.84V439.64ZM1272.91 481V502H1289.86L1293.43 485.432L1272.91 481ZM1087.73 481L1108.24 485.496L1180.15 157.436L1159.64 152.94L1139.12 148.444L1067.21 476.504L1087.73 481ZM1159.64 152.94V173.94H1337.77V152.94V131.94H1159.64V152.94ZM1337.77 152.94L1317.29 148.286L1307.89 189.646L1328.37 194.3L1348.84 198.954L1358.24 157.594L1337.77 152.94ZM1328.37 194.3V173.3H1198.65V194.3V215.3H1328.37V194.3ZM1198.65 194.3L1178.14 189.776L1156.99 285.656L1177.5 290.18L1198 294.704L1219.15 198.824L1198.65 194.3ZM1177.5 290.18V311.18H1299.23V290.18V269.18H1177.5V290.18ZM1299.23 290.18L1278.61 286.197L1270.62 327.557L1291.24 331.54L1311.86 335.523L1319.85 294.163L1299.23 290.18ZM1291.24 331.54V310.54H1168.1V331.54V352.54H1291.24V331.54ZM1168.1 331.54L1147.59 326.994L1123.62 435.094L1144.13 439.64L1164.63 444.186L1188.6 336.086L1168.1 331.54ZM1144.13 439.64V460.64H1281.84V439.64V418.64H1144.13V439.64ZM1281.84 439.64L1261.31 435.208L1252.38 476.568L1272.91 481L1293.43 485.432L1302.36 444.072L1281.84 439.64ZM1272.91 481V460H1087.73V481V502H1272.91V481ZM1544.41 162.81L1564.44 169.112L1570.21 150.782L1552.46 143.415L1544.41 162.81ZM1531.25 204.64L1520.36 222.599L1543.25 236.469L1551.28 210.942L1531.25 204.64ZM1313.64 467.84L1293.8 460.941L1287.17 480.005L1305.96 487.386L1313.64 467.84ZM1328.68 424.6L1339.92 406.865L1317.55 392.675L1308.84 417.701L1328.68 424.6ZM1544.41 162.81L1524.38 156.508L1511.22 198.338L1531.25 204.64L1551.28 210.942L1564.44 169.112L1544.41 162.81ZM1531.25 204.64L1542.13 186.681C1523.49 175.381 1500.48 167.66 1471.56 167.66V188.66V209.66C1492.46 209.66 1507.99 215.099 1520.36 222.599L1531.25 204.64ZM1471.56 188.66V167.66C1453.84 167.66 1433.12 171.063 1416.14 181.981C1397.91 193.703 1385.7 213.104 1385.7 239.89H1406.7H1427.7C1427.7 227.666 1432.41 221.452 1438.85 217.311C1446.54 212.367 1458.26 209.66 1471.56 209.66V188.66ZM1406.7 239.89H1385.7C1385.7 262.07 1397.46 277.696 1410.4 288.944C1422.47 299.444 1438.85 308.775 1451.38 316.725C1478.76 334.097 1497.56 350.245 1497.56 381.36H1518.56H1539.56C1539.56 326.465 1502.43 299.373 1473.88 281.26C1458.44 271.468 1446.86 264.995 1437.96 257.253C1429.92 250.259 1427.7 245.205 1427.7 239.89H1406.7ZM1518.56 381.36H1497.56C1497.56 401.415 1490.54 422.487 1476.04 438.326C1461.92 453.753 1439.41 465.64 1405.29 465.64V486.64V507.64C1450.13 507.64 1484.25 491.562 1507.02 466.686C1529.42 442.223 1539.56 410.655 1539.56 381.36H1518.56ZM1405.29 486.64V465.64C1370.82 465.64 1346.31 458.111 1321.32 448.294L1313.64 467.84L1305.96 487.386C1333.61 498.249 1363.61 507.64 1405.29 507.64V486.64ZM1313.64 467.84L1333.47 474.739L1348.51 431.499L1328.68 424.6L1308.84 417.701L1293.8 460.941L1313.64 467.84ZM1328.68 424.6L1317.43 442.335C1339.75 456.489 1370.4 466.28 1397.77 466.28V445.28V424.28C1379.08 424.28 1356.15 417.151 1339.92 406.865L1328.68 424.6ZM1397.77 445.28V466.28C1427.2 466.28 1450.5 457.004 1466.55 441.441C1482.4 426.078 1489.74 405.951 1489.74 387H1468.74H1447.74C1447.74 395.309 1444.5 404.322 1437.32 411.284C1430.34 418.046 1418.15 424.28 1397.77 424.28V445.28ZM1468.74 387H1489.74C1489.74 363.201 1479.28 346.151 1465.53 333.417C1452.99 321.807 1436.29 312.692 1423.62 305.079C1409.77 296.755 1398.58 289.151 1390.58 279.419C1383.18 270.408 1377.88 258.756 1377.88 240.83H1356.88H1335.88C1335.88 268.494 1344.56 289.566 1358.13 306.082C1371.11 321.877 1387.88 332.603 1401.99 341.081C1417.29 350.27 1428.56 356.431 1436.99 364.237C1444.21 370.92 1447.74 377.429 1447.74 387H1468.74ZM1356.88 240.83H1377.88C1377.88 197.275 1417.87 168.3 1465.45 168.3V147.3V126.3C1404.93 126.3 1335.88 165.005 1335.88 240.83H1356.88ZM1465.45 147.3V168.3C1490.05 168.3 1514.09 172.964 1536.36 182.205L1544.41 162.81L1552.46 143.415C1524.9 131.976 1495.37 126.3 1465.45 126.3V147.3Z" fill="white" mask="url(#path-4-outside-2_1_2)"/>
</g>
<g opacity="0.3">
<mask id="path-6-outside-3_1_2" maskUnits="userSpaceOnUse" x="761" y="116" width="776" height="382" fill="black">
<rect fill="white" x="761" y="116" width="776" height="382"/>
<path d="M853.51 471L881.71 333.76L793.82 142.94H845.52L910.85 291.46L1040.1 142.94H1099.79L927.77 333.76L899.57 471H853.51ZM1053.73 471L1125.64 142.94H1303.77L1294.37 184.3H1164.65L1143.5 280.18H1265.23L1257.24 321.54H1134.1L1110.13 429.64H1247.84L1238.91 471H1053.73ZM1510.41 152.81L1497.25 194.64C1481.74 185.24 1462.47 178.66 1437.56 178.66C1406.54 178.66 1372.7 190.88 1372.7 229.89C1372.7 284.88 1484.56 285.35 1484.56 371.36C1484.56 420.71 1450.25 476.64 1371.29 476.64C1333.22 476.64 1305.96 468.18 1279.64 457.84L1294.68 414.6C1313.95 426.82 1340.74 435.28 1363.77 435.28C1413.59 435.28 1434.74 404.26 1434.74 377C1434.74 310.26 1322.88 322.01 1322.88 230.83C1322.88 171.14 1377.4 137.3 1431.45 137.3C1458.71 137.3 1485.5 142.47 1510.41 152.81Z"/>
</mask>
<path d="M853.51 471L881.71 333.76L793.82 142.94H845.52L910.85 291.46L1040.1 142.94H1099.79L927.77 333.76L899.57 471H853.51ZM1053.73 471L1125.64 142.94H1303.77L1294.37 184.3H1164.65L1143.5 280.18H1265.23L1257.24 321.54H1134.1L1110.13 429.64H1247.84L1238.91 471H1053.73ZM1510.41 152.81L1497.25 194.64C1481.74 185.24 1462.47 178.66 1437.56 178.66C1406.54 178.66 1372.7 190.88 1372.7 229.89C1372.7 284.88 1484.56 285.35 1484.56 371.36C1484.56 420.71 1450.25 476.64 1371.29 476.64C1333.22 476.64 1305.96 468.18 1279.64 457.84L1294.68 414.6C1313.95 426.82 1340.74 435.28 1363.77 435.28C1413.59 435.28 1434.74 404.26 1434.74 377C1434.74 310.26 1322.88 322.01 1322.88 230.83C1322.88 171.14 1377.4 137.3 1431.45 137.3C1458.71 137.3 1485.5 142.47 1510.41 152.81Z" fill="white"/>
<path d="M853.51 471L832.94 466.773L827.756 492H853.51V471ZM881.71 333.76L902.28 337.987L903.668 331.235L900.784 324.975L881.71 333.76ZM793.82 142.94V121.94H761.027L774.746 151.725L793.82 142.94ZM845.52 142.94L864.743 134.485L859.225 121.94H845.52V142.94ZM910.85 291.46L891.627 299.915L904.958 330.22L926.691 305.246L910.85 291.46ZM1040.1 142.94V121.94H1030.54L1024.26 129.154L1040.1 142.94ZM1099.79 142.94L1115.39 157.001L1146.99 121.94H1099.79V142.94ZM927.77 333.76L912.172 319.699L908.349 323.94L907.2 329.533L927.77 333.76ZM899.57 471V492H916.694L920.14 475.227L899.57 471ZM853.51 471L874.08 475.227L902.28 337.987L881.71 333.76L861.14 329.533L832.94 466.773L853.51 471ZM881.71 333.76L900.784 324.975L812.894 134.155L793.82 142.94L774.746 151.725L862.636 342.545L881.71 333.76ZM793.82 142.94V163.94H845.52V142.94V121.94H793.82V142.94ZM845.52 142.94L826.297 151.395L891.627 299.915L910.85 291.46L930.073 283.005L864.743 134.485L845.52 142.94ZM910.85 291.46L926.691 305.246L1055.94 156.726L1040.1 142.94L1024.26 129.154L895.009 277.674L910.85 291.46ZM1040.1 142.94V163.94H1099.79V142.94V121.94H1040.1V142.94ZM1099.79 142.94L1084.19 128.879L912.172 319.699L927.77 333.76L943.368 347.821L1115.39 157.001L1099.79 142.94ZM927.77 333.76L907.2 329.533L879 466.773L899.57 471L920.14 475.227L948.34 337.987L927.77 333.76ZM899.57 471V450H853.51V471V492H899.57V471ZM1053.73 471L1033.21 466.504L1027.62 492H1053.73V471ZM1125.64 142.94V121.94H1108.74L1105.12 138.444L1125.64 142.94ZM1303.77 142.94L1324.24 147.594L1330.07 121.94H1303.77V142.94ZM1294.37 184.3V205.3H1311.13L1314.84 188.954L1294.37 184.3ZM1164.65 184.3V163.3H1147.77L1144.14 179.776L1164.65 184.3ZM1143.5 280.18L1122.99 275.656L1117.36 301.18H1143.5V280.18ZM1265.23 280.18L1285.85 284.163L1290.67 259.18H1265.23V280.18ZM1257.24 321.54V342.54H1274.57L1277.86 325.523L1257.24 321.54ZM1134.1 321.54V300.54H1117.24L1113.59 316.994L1134.1 321.54ZM1110.13 429.64L1089.62 425.094L1083.96 450.64H1110.13V429.64ZM1247.84 429.64L1268.36 434.072L1273.85 408.64H1247.84V429.64ZM1238.91 471V492H1255.86L1259.43 475.432L1238.91 471ZM1053.73 471L1074.24 475.496L1146.15 147.436L1125.64 142.94L1105.12 138.444L1033.21 466.504L1053.73 471ZM1125.64 142.94V163.94H1303.77V142.94V121.94H1125.64V142.94ZM1303.77 142.94L1283.29 138.286L1273.89 179.646L1294.37 184.3L1314.84 188.954L1324.24 147.594L1303.77 142.94ZM1294.37 184.3V163.3H1164.65V184.3V205.3H1294.37V184.3ZM1164.65 184.3L1144.14 179.776L1122.99 275.656L1143.5 280.18L1164 284.704L1185.15 188.824L1164.65 184.3ZM1143.5 280.18V301.18H1265.23V280.18V259.18H1143.5V280.18ZM1265.23 280.18L1244.61 276.197L1236.62 317.557L1257.24 321.54L1277.86 325.523L1285.85 284.163L1265.23 280.18ZM1257.24 321.54V300.54H1134.1V321.54V342.54H1257.24V321.54ZM1134.1 321.54L1113.59 316.994L1089.62 425.094L1110.13 429.64L1130.63 434.186L1154.6 326.086L1134.1 321.54ZM1110.13 429.64V450.64H1247.84V429.64V408.64H1110.13V429.64ZM1247.84 429.64L1227.31 425.208L1218.38 466.568L1238.91 471L1259.43 475.432L1268.36 434.072L1247.84 429.64ZM1238.91 471V450H1053.73V471V492H1238.91V471ZM1510.41 152.81L1530.44 159.112L1536.21 140.782L1518.46 133.415L1510.41 152.81ZM1497.25 194.64L1486.36 212.599L1509.25 226.469L1517.28 200.942L1497.25 194.64ZM1279.64 457.84L1259.8 450.941L1253.17 470.005L1271.96 477.386L1279.64 457.84ZM1294.68 414.6L1305.92 396.865L1283.55 382.675L1274.84 407.701L1294.68 414.6ZM1510.41 152.81L1490.38 146.508L1477.22 188.338L1497.25 194.64L1517.28 200.942L1530.44 159.112L1510.41 152.81ZM1497.25 194.64L1508.13 176.681C1489.49 165.381 1466.48 157.66 1437.56 157.66V178.66V199.66C1458.46 199.66 1473.99 205.099 1486.36 212.599L1497.25 194.64ZM1437.56 178.66V157.66C1419.84 157.66 1399.12 161.063 1382.14 171.981C1363.91 183.703 1351.7 203.104 1351.7 229.89H1372.7H1393.7C1393.7 217.666 1398.41 211.452 1404.85 207.311C1412.54 202.367 1424.26 199.66 1437.56 199.66V178.66ZM1372.7 229.89H1351.7C1351.7 252.07 1363.46 267.696 1376.4 278.944C1388.47 289.444 1404.85 298.775 1417.38 306.725C1444.76 324.097 1463.56 340.245 1463.56 371.36H1484.56H1505.56C1505.56 316.465 1468.43 289.373 1439.88 271.26C1424.44 261.468 1412.86 254.995 1403.96 247.253C1395.92 240.259 1393.7 235.205 1393.7 229.89H1372.7ZM1484.56 371.36H1463.56C1463.56 391.415 1456.54 412.487 1442.04 428.326C1427.92 443.753 1405.41 455.64 1371.29 455.64V476.64V497.64C1416.13 497.64 1450.25 481.562 1473.02 456.686C1495.42 432.223 1505.56 400.655 1505.56 371.36H1484.56ZM1371.29 476.64V455.64C1336.82 455.64 1312.31 448.111 1287.32 438.294L1279.64 457.84L1271.96 477.386C1299.61 488.249 1329.61 497.64 1371.29 497.64V476.64ZM1279.64 457.84L1299.47 464.739L1314.51 421.499L1294.68 414.6L1274.84 407.701L1259.8 450.941L1279.64 457.84ZM1294.68 414.6L1283.43 432.335C1305.75 446.489 1336.4 456.28 1363.77 456.28V435.28V414.28C1345.08 414.28 1322.15 407.151 1305.92 396.865L1294.68 414.6ZM1363.77 435.28V456.28C1393.2 456.28 1416.5 447.004 1432.55 431.441C1448.4 416.078 1455.74 395.951 1455.74 377H1434.74H1413.74C1413.74 385.309 1410.5 394.322 1403.32 401.284C1396.34 408.046 1384.15 414.28 1363.77 414.28V435.28ZM1434.74 377H1455.74C1455.74 353.201 1445.28 336.151 1431.53 323.417C1418.99 311.807 1402.29 302.692 1389.62 295.079C1375.77 286.755 1364.58 279.151 1356.58 269.419C1349.18 260.408 1343.88 248.756 1343.88 230.83H1322.88H1301.88C1301.88 258.494 1310.56 279.566 1324.13 296.082C1337.11 311.877 1353.88 322.603 1367.99 331.081C1383.29 340.27 1394.56 346.431 1402.99 354.237C1410.21 360.92 1413.74 367.429 1413.74 377H1434.74ZM1322.88 230.83H1343.88C1343.88 187.275 1383.87 158.3 1431.45 158.3V137.3V116.3C1370.93 116.3 1301.88 155.005 1301.88 230.83H1322.88ZM1431.45 137.3V158.3C1456.05 158.3 1480.09 162.964 1502.36 172.205L1510.41 152.81L1518.46 133.415C1490.9 121.976 1461.37 116.3 1431.45 116.3V137.3Z" fill="white" mask="url(#path-6-outside-3_1_2)"/>
</g>
<mask id="path-8-outside-4_1_2" maskUnits="userSpaceOnUse" x="150" y="121" width="714" height="371" fill="black">
<rect fill="white" x="150" y="121" width="714" height="371"/>
<path d="M176.74 471L244.89 142.94H306.93L399.52 417.89H400.46L458.74 142.94H503.39L431.95 471H371.32L278.73 198.4H277.79L221.86 471H176.74ZM517.809 471L586.899 142.94H634.369L605.699 280.18H761.739L791.349 142.94H837.409L768.319 471H720.379L752.809 321.54H597.239L565.749 471H517.809Z"/>
</mask>
<path d="M176.74 471L244.89 142.94H306.93L399.52 417.89H400.46L458.74 142.94H503.39L431.95 471H371.32L278.73 198.4H277.79L221.86 471H176.74ZM517.809 471L586.899 142.94H634.369L605.699 280.18H761.739L791.349 142.94H837.409L768.319 471H720.379L752.809 321.54H597.239L565.749 471H517.809Z" fill="white"/>
<path d="M176.74 471L156.179 466.729L150.929 492H176.74V471ZM244.89 142.94V121.94H227.804L224.329 138.669L244.89 142.94ZM306.93 142.94L326.832 136.238L322.017 121.94H306.93V142.94ZM399.52 417.89L379.618 424.592L384.433 438.89H399.52V417.89ZM400.46 417.89V438.89H417.475L421.004 422.245L400.46 417.89ZM458.74 142.94V121.94H441.725L438.196 138.585L458.74 142.94ZM503.39 142.94L523.909 147.408L529.455 121.94H503.39V142.94ZM431.95 471V492H448.869L452.469 475.468L431.95 471ZM371.32 471L351.436 477.754L356.274 492H371.32V471ZM278.73 198.4L298.614 191.646L293.776 177.4H278.73V198.4ZM277.79 198.4V177.4H260.661L257.219 194.179L277.79 198.4ZM221.86 471V492H238.989L242.431 475.221L221.86 471ZM176.74 471L197.301 475.271L265.451 147.211L244.89 142.94L224.329 138.669L156.179 466.729L176.74 471ZM244.89 142.94V163.94H306.93V142.94V121.94H244.89V142.94ZM306.93 142.94L287.028 149.642L379.618 424.592L399.52 417.89L419.422 411.188L326.832 136.238L306.93 142.94ZM399.52 417.89V438.89H400.46V417.89V396.89H399.52V417.89ZM400.46 417.89L421.004 422.245L479.284 147.295L458.74 142.94L438.196 138.585L379.916 413.535L400.46 417.89ZM458.74 142.94V163.94H503.39V142.94V121.94H458.74V142.94ZM503.39 142.94L482.871 138.472L411.431 466.532L431.95 471L452.469 475.468L523.909 147.408L503.39 142.94ZM431.95 471V450H371.32V471V492H431.95V471ZM371.32 471L391.204 464.246L298.614 191.646L278.73 198.4L258.846 205.154L351.436 477.754L371.32 471ZM278.73 198.4V177.4H277.79V198.4V219.4H278.73V198.4ZM277.79 198.4L257.219 194.179L201.289 466.779L221.86 471L242.431 475.221L298.361 202.621L277.79 198.4ZM221.86 471V450H176.74V471V492H221.86V471ZM517.809 471L497.26 466.672L491.926 492H517.809V471ZM586.899 142.94V121.94H569.861L566.35 138.612L586.899 142.94ZM634.369 142.94L654.926 147.234L660.21 121.94H634.369V142.94ZM605.699 280.18L585.143 275.886L579.859 301.18H605.699V280.18ZM761.739 280.18V301.18H778.692L782.267 284.609L761.739 280.18ZM791.349 142.94V121.94H774.397L770.822 138.511L791.349 142.94ZM837.409 142.94L857.959 147.268L863.293 121.94H837.409V142.94ZM768.319 471V492H785.357L788.869 475.328L768.319 471ZM720.379 471L699.857 466.547L694.334 492H720.379V471ZM752.809 321.54L773.332 325.993L778.855 300.54H752.809V321.54ZM597.239 321.54V300.54H580.203L576.691 317.211L597.239 321.54ZM565.749 471V492H582.786L586.298 475.329L565.749 471ZM517.809 471L538.359 475.328L607.449 147.268L586.899 142.94L566.35 138.612L497.26 466.672L517.809 471ZM586.899 142.94V163.94H634.369V142.94V121.94H586.899V142.94ZM634.369 142.94L613.813 138.646L585.143 275.886L605.699 280.18L626.256 284.474L654.926 147.234L634.369 142.94ZM605.699 280.18V301.18H761.739V280.18V259.18H605.699V280.18ZM761.739 280.18L782.267 284.609L811.877 147.369L791.349 142.94L770.822 138.511L741.212 275.751L761.739 280.18ZM791.349 142.94V163.94H837.409V142.94V121.94H791.349V142.94ZM837.409 142.94L816.86 138.612L747.77 466.672L768.319 471L788.869 475.328L857.959 147.268L837.409 142.94ZM768.319 471V450H720.379V471V492H768.319V471ZM720.379 471L740.902 475.453L773.332 325.993L752.809 321.54L732.287 317.087L699.857 466.547L720.379 471ZM752.809 321.54V300.54H597.239V321.54V342.54H752.809V321.54ZM597.239 321.54L576.691 317.211L545.201 466.671L565.749 471L586.298 475.329L617.788 325.869L597.239 321.54ZM565.749 471V450H517.809V471V492H565.749V471Z" fill="white" mask="url(#path-8-outside-4_1_2)"/>
</svg>
